<mxfile modified="2024-02-20T10:44:10.539Z" host="app.diagrams.net" agent="Mozilla/5.0 (Windows NT 10.0; Win64; x64) AppleWebKit/537.36 (KHTML, like Gecko) Chrome/121.0.0.0 Safari/537.36" etag="sCjt4dcRVRMvspcm-JIM" version="23.1.5" type="github">
  <diagram id="C2fSY1v2SiZeoUbDoYyL" name="Page-1">
    <mxGraphModel dx="1674" dy="780" grid="1" gridSize="10" guides="1" tooltips="1" connect="1" arrows="1" fold="1" page="1" pageScale="1" pageWidth="1169" pageHeight="827" math="0" shadow="0">
      <root>
        <mxCell id="0" />
        <mxCell id="1" parent="0" />
        <mxCell id="3ne1QswCM8ZiEu4GHsYG-31" value="Дэшборд Глава района" style="text;html=1;strokeColor=none;fillColor=none;align=center;verticalAlign=middle;whiteSpace=wrap;rounded=0;fontStyle=1;fontSize=20;fontColor=#4D4D4D;" parent="1" vertex="1">
          <mxGeometry x="189.5" y="50" width="790" height="30" as="geometry" />
        </mxCell>
        <mxCell id="3ne1QswCM8ZiEu4GHsYG-32" value="" style="line;strokeWidth=2;html=1;fontSize=20;fontColor=#4D4D4D;" parent="1" vertex="1">
          <mxGeometry x="103.5" y="80" width="960" height="10" as="geometry" />
        </mxCell>
        <mxCell id="QLNjNVSxcbgXZy6OQrdi-61" value="" style="endArrow=none;html=1;strokeWidth=3;strokeColor=#CCCCCC;labelBackgroundColor=none;fontSize=16;rounded=0;" parent="1" source="QLNjNVSxcbgXZy6OQrdi-62" target="QLNjNVSxcbgXZy6OQrdi-63" edge="1">
          <mxGeometry relative="1" as="geometry" />
        </mxCell>
        <mxCell id="QLNjNVSxcbgXZy6OQrdi-62" value="" style="ellipse;whiteSpace=wrap;html=1;aspect=fixed;shadow=0;fillColor=none;strokeColor=#333333;fontSize=16;align=center;strokeWidth=2;" parent="1" vertex="1">
          <mxGeometry x="577.5" y="110" width="12" height="12" as="geometry" />
        </mxCell>
        <mxCell id="QLNjNVSxcbgXZy6OQrdi-63" value="" style="ellipse;whiteSpace=wrap;html=1;aspect=fixed;shadow=0;fillColor=none;strokeColor=#333333;fontSize=16;align=center;strokeWidth=2;" parent="1" vertex="1">
          <mxGeometry x="577.5" y="1200" width="12" height="12" as="geometry" />
        </mxCell>
        <mxCell id="QLNjNVSxcbgXZy6OQrdi-64" value="" style="verticalLabelPosition=middle;verticalAlign=middle;html=1;shape=mxgraph.infographic.circularCallout2;dy=15;strokeColor=#10739E;labelPosition=center;align=center;fontColor=#10739E;fontStyle=1;fontSize=24;shadow=0;direction=north;" parent="1" vertex="1">
          <mxGeometry x="343.5" y="140" width="246" height="60" as="geometry" />
        </mxCell>
        <mxCell id="7rP-CeqJjFyxMtN8SH18-14" value="" style="edgeStyle=orthogonalEdgeStyle;rounded=0;orthogonalLoop=1;jettySize=auto;html=1;" edge="1" parent="1" source="QLNjNVSxcbgXZy6OQrdi-65" target="7rP-CeqJjFyxMtN8SH18-13">
          <mxGeometry relative="1" as="geometry" />
        </mxCell>
        <mxCell id="QLNjNVSxcbgXZy6OQrdi-65" value="" style="verticalLabelPosition=middle;verticalAlign=middle;html=1;shape=mxgraph.infographic.circularCallout2;dy=15;strokeColor=#F2931E;labelPosition=center;align=center;fontColor=#F2931E;fontStyle=1;fontSize=24;shadow=0;direction=north;flipH=1;" parent="1" vertex="1">
          <mxGeometry x="577.5" y="210" width="246" height="60" as="geometry" />
        </mxCell>
        <mxCell id="QLNjNVSxcbgXZy6OQrdi-66" value="" style="verticalLabelPosition=middle;verticalAlign=middle;html=1;shape=mxgraph.infographic.circularCallout2;dy=15;strokeColor=#AE4132;labelPosition=center;align=center;fontColor=#10739E;fontStyle=1;fontSize=24;shadow=0;direction=north;" parent="1" vertex="1">
          <mxGeometry x="343.5" y="280" width="246" height="60" as="geometry" />
        </mxCell>
        <mxCell id="7rP-CeqJjFyxMtN8SH18-23" value="" style="edgeStyle=orthogonalEdgeStyle;rounded=0;orthogonalLoop=1;jettySize=auto;html=1;" edge="1" parent="1" source="QLNjNVSxcbgXZy6OQrdi-67" target="7rP-CeqJjFyxMtN8SH18-20">
          <mxGeometry relative="1" as="geometry" />
        </mxCell>
        <mxCell id="QLNjNVSxcbgXZy6OQrdi-67" value="" style="verticalLabelPosition=middle;verticalAlign=middle;html=1;shape=mxgraph.infographic.circularCallout2;dy=15;strokeColor=#23445D;labelPosition=center;align=center;fontColor=#10739E;fontStyle=1;fontSize=24;shadow=0;direction=north;flipH=1;" parent="1" vertex="1">
          <mxGeometry x="577.5" y="350" width="246" height="60" as="geometry" />
        </mxCell>
        <mxCell id="QLNjNVSxcbgXZy6OQrdi-68" value="" style="verticalLabelPosition=middle;verticalAlign=middle;html=1;shape=mxgraph.infographic.circularCallout2;dy=15;strokeColor=#12AAB5;labelPosition=center;align=center;fontColor=#10739E;fontStyle=1;fontSize=24;shadow=0;direction=north;" parent="1" vertex="1">
          <mxGeometry x="343.5" y="420" width="246" height="60" as="geometry" />
        </mxCell>
        <mxCell id="7rP-CeqJjFyxMtN8SH18-6" value="" style="edgeStyle=orthogonalEdgeStyle;rounded=0;orthogonalLoop=1;jettySize=auto;html=1;" edge="1" parent="1" source="QLNjNVSxcbgXZy6OQrdi-69" target="7rP-CeqJjFyxMtN8SH18-5">
          <mxGeometry relative="1" as="geometry" />
        </mxCell>
        <mxCell id="QLNjNVSxcbgXZy6OQrdi-69" value="" style="verticalLabelPosition=middle;verticalAlign=middle;html=1;shape=mxgraph.infographic.circularCallout2;dy=15;strokeColor=#56517E;labelPosition=center;align=center;fontColor=#10739E;fontStyle=1;fontSize=24;shadow=0;direction=north;flipH=1;" parent="1" vertex="1">
          <mxGeometry x="577.5" y="490" width="246" height="60" as="geometry" />
        </mxCell>
        <mxCell id="QLNjNVSxcbgXZy6OQrdi-70" value="ЖКХ" style="fillColor=#10739E;strokecolor=none;rounded=1;fontColor=#FFFFFF;strokeColor=none;fontStyle=1;fontSize=14;whiteSpace=wrap;html=1;" parent="1" vertex="1">
          <mxGeometry x="413.5" y="130" width="160" height="30" as="geometry" />
        </mxCell>
        <mxCell id="QLNjNVSxcbgXZy6OQrdi-71" value="Чеки" style="fillColor=#F2931E;strokecolor=none;rounded=1;fontColor=#FFFFFF;strokeColor=none;fontStyle=1;fontSize=14;whiteSpace=wrap;html=1;" parent="1" vertex="1">
          <mxGeometry x="593.5" y="195" width="160" height="30" as="geometry" />
        </mxCell>
        <mxCell id="QLNjNVSxcbgXZy6OQrdi-72" value="Народный контроль" style="fillColor=#AE4132;strokecolor=none;rounded=1;fontColor=#FFFFFF;strokeColor=none;fontStyle=1;fontSize=14;whiteSpace=wrap;html=1;" parent="1" vertex="1">
          <mxGeometry x="413.5" y="270" width="160" height="30" as="geometry" />
        </mxCell>
        <mxCell id="QLNjNVSxcbgXZy6OQrdi-73" value="СЭР" style="fillColor=#23445D;strokecolor=none;rounded=1;fontColor=#FFFFFF;strokeColor=none;fontStyle=1;fontSize=14;whiteSpace=wrap;html=1;" parent="1" vertex="1">
          <mxGeometry x="593.5" y="335" width="160" height="30" as="geometry" />
        </mxCell>
        <mxCell id="QLNjNVSxcbgXZy6OQrdi-74" value="ОВДЛ" style="fillColor=#12AAB5;strokecolor=none;rounded=1;fontColor=#FFFFFF;strokeColor=none;fontStyle=1;fontSize=14;whiteSpace=wrap;html=1;" parent="1" vertex="1">
          <mxGeometry x="413.5" y="410" width="160" height="30" as="geometry" />
        </mxCell>
        <mxCell id="QLNjNVSxcbgXZy6OQrdi-75" value="Туризм" style="fillColor=#56517E;strokecolor=none;rounded=1;fontColor=#FFFFFF;strokeColor=none;fontStyle=1;fontSize=14;whiteSpace=wrap;html=1;" parent="1" vertex="1">
          <mxGeometry x="593.5" y="475" width="160" height="30" as="geometry" />
        </mxCell>
        <mxCell id="QLNjNVSxcbgXZy6OQrdi-76" value="&lt;font style=&quot;font-size: 10px&quot;&gt;&lt;font style=&quot;font-size: 12px&quot; color=&quot;#10739E&quot;&gt;&lt;b&gt;Label&lt;/b&gt;&lt;/font&gt;&lt;br&gt;&lt;br&gt;&lt;font size=&quot;1&quot;&gt;Lorem ipsum dolor sit amet, consectetur adipisicing elit&lt;/font&gt;&lt;/font&gt;" style="rounded=1;strokeColor=none;fillColor=#EEEEEE;align=center;arcSize=12;verticalAlign=top;whiteSpace=wrap;html=1;fontSize=12;" parent="1" vertex="1">
          <mxGeometry x="413.5" y="180" width="160" height="70" as="geometry" />
        </mxCell>
        <mxCell id="QLNjNVSxcbgXZy6OQrdi-77" value="&lt;font style=&quot;font-size: 10px&quot;&gt;&lt;font style=&quot;font-size: 12px&quot; color=&quot;#F2931E&quot;&gt;&lt;b&gt;Label&lt;/b&gt;&lt;/font&gt;&lt;br&gt;&lt;br&gt;&lt;font size=&quot;1&quot;&gt;Lorem ipsum dolor sit amet, consectetur adipisicing elit&lt;/font&gt;&lt;/font&gt;" style="rounded=1;strokeColor=none;fillColor=#EEEEEE;align=center;arcSize=12;verticalAlign=top;whiteSpace=wrap;html=1;fontSize=12;" parent="1" vertex="1">
          <mxGeometry x="593.5" y="250" width="160" height="70" as="geometry" />
        </mxCell>
        <mxCell id="QLNjNVSxcbgXZy6OQrdi-78" value="&lt;font style=&quot;font-size: 10px&quot;&gt;&lt;font size=&quot;1&quot;&gt;Качество оказываемых услуг;&lt;br&gt;&lt;/font&gt;&lt;/font&gt;" style="rounded=1;strokeColor=none;fillColor=#EEEEEE;align=center;arcSize=12;verticalAlign=top;whiteSpace=wrap;html=1;fontSize=12;" parent="1" vertex="1">
          <mxGeometry x="413.5" y="320" width="160" height="70" as="geometry" />
        </mxCell>
        <mxCell id="QLNjNVSxcbgXZy6OQrdi-79" value="&lt;font style=&quot;font-size: 10px&quot;&gt;Основные показатели Социально-экономического развития&lt;br&gt;&lt;/font&gt;" style="rounded=1;strokeColor=none;fillColor=#EEEEEE;align=center;arcSize=12;verticalAlign=top;whiteSpace=wrap;html=1;fontSize=12;" parent="1" vertex="1">
          <mxGeometry x="593.5" y="390" width="160" height="70" as="geometry" />
        </mxCell>
        <mxCell id="QLNjNVSxcbgXZy6OQrdi-80" value="&lt;span style=&quot;font-size: 10px;&quot;&gt;Показатели ситуационного центра;&lt;/span&gt;" style="rounded=1;strokeColor=none;fillColor=#EEEEEE;align=center;arcSize=12;verticalAlign=top;whiteSpace=wrap;html=1;fontSize=12;" parent="1" vertex="1">
          <mxGeometry x="413.5" y="460" width="160" height="70" as="geometry" />
        </mxCell>
        <mxCell id="QLNjNVSxcbgXZy6OQrdi-81" value="&lt;font style=&quot;&quot;&gt;&lt;font style=&quot;font-size: 10px;&quot; size=&quot;1&quot;&gt;Информацию по тур потоку района (входящий исходящий);&lt;br&gt;Влияние тур потока на экономическую, социальную обстановку района;&lt;br&gt;&lt;/font&gt;&lt;/font&gt;" style="rounded=1;strokeColor=none;fillColor=#EEEEEE;align=center;arcSize=12;verticalAlign=top;whiteSpace=wrap;html=1;fontSize=12;" parent="1" vertex="1">
          <mxGeometry x="593.5" y="530" width="160" height="90" as="geometry" />
        </mxCell>
        <mxCell id="QLNjNVSxcbgXZy6OQrdi-106" value="" style="verticalLabelPosition=middle;verticalAlign=middle;html=1;shape=mxgraph.infographic.circularCallout2;dy=15;strokeColor=#00CC66;labelPosition=center;align=center;fontColor=#10739E;fontStyle=1;fontSize=24;shadow=0;direction=north;" parent="1" vertex="1">
          <mxGeometry x="343.5" y="570" width="246" height="60" as="geometry" />
        </mxCell>
        <mxCell id="QLNjNVSxcbgXZy6OQrdi-107" value="Здравохранение" style="fillColor=#00CC66;strokecolor=none;rounded=1;fontColor=#FFFFFF;strokeColor=none;fontStyle=1;fontSize=14;whiteSpace=wrap;html=1;" parent="1" vertex="1">
          <mxGeometry x="413.5" y="560" width="160" height="30" as="geometry" />
        </mxCell>
        <mxCell id="QLNjNVSxcbgXZy6OQrdi-108" value="&lt;font style=&quot;font-size: 10px;&quot;&gt;Диспансеризация;&lt;br style=&quot;border-color: var(--border-color);&quot;&gt;&lt;span style=&quot;&quot;&gt;Эпид обстановка;&lt;/span&gt;&lt;br style=&quot;border-color: var(--border-color);&quot;&gt;&lt;div style=&quot;&quot;&gt;&lt;span style=&quot;background-color: initial;&quot;&gt;Численность мед работников;&lt;/span&gt;&lt;/div&gt;&lt;div style=&quot;&quot;&gt;Кол-во койко-мест;&lt;/div&gt;&lt;div style=&quot;&quot;&gt;Реализация публично сформированных целей и задач&lt;span style=&quot;background-color: initial;&quot;&gt;&lt;br&gt;&lt;/span&gt;&lt;/div&gt;&lt;div style=&quot;&quot;&gt;Профилактика и лечение вирусного гепатита С;&lt;/div&gt;&lt;div style=&quot;&quot;&gt;Обеспеченность жизненно-важными лс;&lt;/div&gt;&lt;/font&gt;" style="rounded=1;strokeColor=none;fillColor=#EEEEEE;align=center;arcSize=12;verticalAlign=top;whiteSpace=wrap;html=1;fontSize=12;" parent="1" vertex="1">
          <mxGeometry x="413.5" y="610" width="160" height="140" as="geometry" />
        </mxCell>
        <mxCell id="7rP-CeqJjFyxMtN8SH18-7" value="" style="edgeStyle=orthogonalEdgeStyle;rounded=0;orthogonalLoop=1;jettySize=auto;html=1;" edge="1" parent="1" source="QLNjNVSxcbgXZy6OQrdi-109" target="7rP-CeqJjFyxMtN8SH18-4">
          <mxGeometry relative="1" as="geometry" />
        </mxCell>
        <mxCell id="QLNjNVSxcbgXZy6OQrdi-109" value="" style="verticalLabelPosition=middle;verticalAlign=middle;html=1;shape=mxgraph.infographic.circularCallout2;dy=15;strokeColor=#F2931E;labelPosition=center;align=center;fontColor=#F2931E;fontStyle=1;fontSize=24;shadow=0;direction=north;flipH=1;" parent="1" vertex="1">
          <mxGeometry x="577.5" y="975" width="246" height="60" as="geometry" />
        </mxCell>
        <mxCell id="QLNjNVSxcbgXZy6OQrdi-110" value="&lt;font style=&quot;font-size: 12px;&quot;&gt;Кадастр (МЗИО)&lt;/font&gt;" style="fillColor=#F2931E;strokecolor=none;rounded=1;fontColor=#FFFFFF;strokeColor=none;fontStyle=1;fontSize=14;whiteSpace=wrap;html=1;" parent="1" vertex="1">
          <mxGeometry x="593.5" y="960" width="160" height="30" as="geometry" />
        </mxCell>
        <mxCell id="QLNjNVSxcbgXZy6OQrdi-111" value="&lt;span style=&quot;border-color: var(--border-color); font-size: 10px;&quot;&gt;Реализация госимущества;&lt;br&gt;Результаты торгов госимущества;&lt;br&gt;Реализация земельных участков в собственность и аренду;&lt;br&gt;Предоставление субсидий НКО и ГУП;&lt;br&gt;&lt;/span&gt;" style="rounded=1;strokeColor=none;fillColor=#EEEEEE;align=center;arcSize=12;verticalAlign=top;whiteSpace=wrap;html=1;fontSize=12;" parent="1" vertex="1">
          <mxGeometry x="593.5" y="1015" width="160" height="105" as="geometry" />
        </mxCell>
        <mxCell id="7rP-CeqJjFyxMtN8SH18-4" value="" style="shape=datastore;whiteSpace=wrap;html=1;" vertex="1" parent="1">
          <mxGeometry x="900" y="975" width="60" height="60" as="geometry" />
        </mxCell>
        <mxCell id="7rP-CeqJjFyxMtN8SH18-5" value="" style="shape=actor;whiteSpace=wrap;html=1;" vertex="1" parent="1">
          <mxGeometry x="900" y="490" width="40" height="60" as="geometry" />
        </mxCell>
        <mxCell id="7rP-CeqJjFyxMtN8SH18-8" value="" style="shape=datastore;whiteSpace=wrap;html=1;" vertex="1" parent="1">
          <mxGeometry x="190" y="570" width="60" height="60" as="geometry" />
        </mxCell>
        <mxCell id="7rP-CeqJjFyxMtN8SH18-9" value="" style="shape=datastore;whiteSpace=wrap;html=1;" vertex="1" parent="1">
          <mxGeometry x="210" y="420" width="60" height="60" as="geometry" />
        </mxCell>
        <mxCell id="7rP-CeqJjFyxMtN8SH18-10" value="" style="shape=datastore;whiteSpace=wrap;html=1;" vertex="1" parent="1">
          <mxGeometry x="220" y="280" width="60" height="60" as="geometry" />
        </mxCell>
        <mxCell id="7rP-CeqJjFyxMtN8SH18-11" value="" style="shape=datastore;whiteSpace=wrap;html=1;" vertex="1" parent="1">
          <mxGeometry x="210" y="140" width="60" height="60" as="geometry" />
        </mxCell>
        <mxCell id="7rP-CeqJjFyxMtN8SH18-12" value="" style="shape=datastore;whiteSpace=wrap;html=1;" vertex="1" parent="1">
          <mxGeometry x="960" y="210" width="60" height="60" as="geometry" />
        </mxCell>
        <mxCell id="7rP-CeqJjFyxMtN8SH18-15" value="" style="edgeStyle=orthogonalEdgeStyle;rounded=0;orthogonalLoop=1;jettySize=auto;html=1;" edge="1" parent="1" source="7rP-CeqJjFyxMtN8SH18-13" target="7rP-CeqJjFyxMtN8SH18-12">
          <mxGeometry relative="1" as="geometry" />
        </mxCell>
        <mxCell id="7rP-CeqJjFyxMtN8SH18-13" value="" style="shape=actor;whiteSpace=wrap;html=1;" vertex="1" parent="1">
          <mxGeometry x="880" y="210" width="40" height="60" as="geometry" />
        </mxCell>
        <mxCell id="7rP-CeqJjFyxMtN8SH18-22" value="" style="edgeStyle=orthogonalEdgeStyle;rounded=0;orthogonalLoop=1;jettySize=auto;html=1;" edge="1" parent="1" source="7rP-CeqJjFyxMtN8SH18-16" target="7rP-CeqJjFyxMtN8SH18-20">
          <mxGeometry relative="1" as="geometry" />
        </mxCell>
        <mxCell id="7rP-CeqJjFyxMtN8SH18-16" value="" style="shape=datastore;whiteSpace=wrap;html=1;" vertex="1" parent="1">
          <mxGeometry x="920" y="410" width="60" height="60" as="geometry" />
        </mxCell>
        <mxCell id="7rP-CeqJjFyxMtN8SH18-21" value="" style="edgeStyle=orthogonalEdgeStyle;rounded=0;orthogonalLoop=1;jettySize=auto;html=1;" edge="1" parent="1" source="7rP-CeqJjFyxMtN8SH18-17" target="7rP-CeqJjFyxMtN8SH18-20">
          <mxGeometry relative="1" as="geometry" />
        </mxCell>
        <mxCell id="7rP-CeqJjFyxMtN8SH18-17" value="" style="shape=actor;whiteSpace=wrap;html=1;" vertex="1" parent="1">
          <mxGeometry x="920" y="290" width="40" height="60" as="geometry" />
        </mxCell>
        <mxCell id="7rP-CeqJjFyxMtN8SH18-20" value="" style="shape=cross;whiteSpace=wrap;html=1;" vertex="1" parent="1">
          <mxGeometry x="885" y="365" width="30" height="30" as="geometry" />
        </mxCell>
        <UserObject label="&lt;div&gt;&lt;ol&gt;&lt;li&gt;Министерство здравоохранения&lt;/li&gt;&lt;li&gt;Министерство культуры&lt;/li&gt;&lt;li&gt;Министерство лесного хозяйства&lt;/li&gt;&lt;li&gt;Министерство образования и науки&lt;/li&gt;&lt;li&gt;Министерство по делам молодежи Республики Татарстан&lt;/li&gt;&lt;li&gt;Министерство промышленности и торговли&lt;/li&gt;&lt;li&gt;Министерство сельского хозяйства и продовольствия&lt;/li&gt;&lt;li&gt;Министерство спорта Республики Татарстан&lt;/li&gt;&lt;li&gt;Министерство строительства, архитектуры и жилищно-коммунального хозяйства&lt;/li&gt;&lt;li&gt;Министерство транспорта и дорожного хозяйства&lt;/li&gt;&lt;li&gt;Министерство труда, занятости и социальной защиты&lt;/li&gt;&lt;li&gt;Министерство цифрового развития государственного управления, информационных технологий и связи Республики Татарстан&lt;/li&gt;&lt;li&gt;Министерство экологии и природных ресурсов&lt;/li&gt;&lt;li&gt;Министерство экономики&lt;/li&gt;&lt;/ol&gt;&lt;/div&gt;" treeRoot="1" id="7rP-CeqJjFyxMtN8SH18-30">
          <mxCell style="whiteSpace=wrap;html=1;align=left;treeFolding=1;treeMoving=1;newEdgeStyle={&quot;edgeStyle&quot;:&quot;elbowEdgeStyle&quot;,&quot;startArrow&quot;:&quot;none&quot;,&quot;endArrow&quot;:&quot;none&quot;};" vertex="1" parent="1">
            <mxGeometry x="50" y="890" width="430" height="260" as="geometry" />
          </mxCell>
        </UserObject>
        <mxCell id="7rP-CeqJjFyxMtN8SH18-34" value="&lt;table style=&quot;border-collapse:&lt;br/&gt; collapse;width:48pt&quot; width=&quot;64&quot; cellspacing=&quot;0&quot; cellpadding=&quot;0&quot; border=&quot;0&quot;&gt;&lt;colgroup&gt;&lt;col style=&quot;width:48pt&quot; width=&quot;64&quot;&gt;&lt;/colgroup&gt;&lt;tbody&gt;&lt;tr style=&quot;height:15.0pt&quot; height=&quot;20&quot;&gt;&lt;td style=&quot;height:15.0pt;width:48pt&quot; width=&quot;64&quot; height=&quot;20&quot;&gt;Расходы на оплату&lt;br&gt;  труда, план ассигнований&lt;/td&gt; &lt;/tr&gt; &lt;tr style=&quot;height:15.0pt&quot; height=&quot;20&quot;&gt;  &lt;td style=&quot;height:15.0pt&quot; height=&quot;20&quot;&gt;Расходы на оплату труда, исполнено&lt;/td&gt; &lt;/tr&gt; &lt;tr style=&quot;height:15.0pt&quot; height=&quot;20&quot;&gt;  &lt;td style=&quot;height:15.0pt&quot; height=&quot;20&quot;&gt;Цифровизация услуг и формирование&lt;br&gt;  информационного пространства в сфере культуры (Цифровая культура) -&lt;br&gt;  Министерство культуры РТ, план&lt;/td&gt; &lt;/tr&gt; &lt;tr style=&quot;height:15.0pt&quot; height=&quot;20&quot;&gt;  &lt;td style=&quot;height:15.0pt&quot; height=&quot;20&quot;&gt;План по доходам в соответствии с ПКМ&lt;/td&gt; &lt;/tr&gt; &lt;tr style=&quot;height:15.0pt&quot; height=&quot;20&quot;&gt;  &lt;td style=&quot;height:15.0pt&quot; height=&quot;20&quot;&gt;Поступило доходов от оказания платных&lt;br&gt;  услуг&lt;/td&gt; &lt;/tr&gt; &lt;tr style=&quot;height:15.0pt&quot; height=&quot;20&quot;&gt;  &lt;td style=&quot;height:15.0pt&quot; height=&quot;20&quot;&gt;Исполнение плана поступления доходов от&lt;br&gt;  оказания платных услуг (%)&lt;/td&gt; &lt;/tr&gt;&lt;/tbody&gt;&lt;/table&gt;" style="text;html=1;align=left;verticalAlign=middle;resizable=0;points=[];autosize=1;strokeColor=none;fillColor=none;" vertex="1" parent="1">
          <mxGeometry x="770" y="730" width="440" height="180" as="geometry" />
        </mxCell>
        <mxCell id="7rP-CeqJjFyxMtN8SH18-37" value="" style="verticalLabelPosition=middle;verticalAlign=middle;html=1;shape=mxgraph.infographic.circularCallout2;dy=15;strokeColor=#666600;labelPosition=center;align=center;fontColor=#10739E;fontStyle=1;fontSize=24;shadow=0;direction=north;flipH=1;" vertex="1" parent="1">
          <mxGeometry x="577.5" y="655" width="246" height="60" as="geometry" />
        </mxCell>
        <mxCell id="7rP-CeqJjFyxMtN8SH18-38" value="Культура" style="fillColor=#666600;strokecolor=none;rounded=1;fontColor=#FFFFFF;strokeColor=none;fontStyle=1;fontSize=14;whiteSpace=wrap;html=1;" vertex="1" parent="1">
          <mxGeometry x="593.5" y="640" width="160" height="30" as="geometry" />
        </mxCell>
        <mxCell id="7rP-CeqJjFyxMtN8SH18-39" value="&lt;font style=&quot;font-size: 10px&quot;&gt;Расходы на оплату труда;&lt;br&gt;Цифровизация услуг;&lt;br&gt;Поступление доходов от оказания платных услуг;&lt;br&gt;&lt;/font&gt;" style="rounded=1;strokeColor=none;fillColor=#EEEEEE;align=center;arcSize=12;verticalAlign=top;whiteSpace=wrap;html=1;fontSize=12;" vertex="1" parent="1">
          <mxGeometry x="593.5" y="695" width="160" height="70" as="geometry" />
        </mxCell>
      </root>
    </mxGraphModel>
  </diagram>
</mxfile>
